<?xml version="1.0" encoding="UTF-8"?>
<!-- Fig. D — Flux d'artefact entre personas via shared/ — 05/04/2026 -->
<svg viewBox="0 0 880 400" xmlns="http://www.w3.org/2000/svg">

  <defs>
    <radialGradient id="bg-grad" cx="50%" cy="40%" r="70%">
      <stop offset="0%" stop-color="#0a4858"/>
      <stop offset="100%" stop-color="#041c24"/>
    </radialGradient>
    <pattern id="grid" width="20" height="20" patternUnits="userSpaceOnUse">
      <path d="M 20 0 L 0 0 0 20" fill="none" stroke="rgba(0,200,220,0.06)" stroke-width="0.5"/>
    </pattern>
    <filter id="glow">
      <feGaussianBlur stdDeviation="6" result="blur"/>
      <feMerge><feMergeNode in="blur"/><feMergeNode in="SourceGraphic"/></feMerge>
    </filter>
    <filter id="glow-sm">
      <feGaussianBlur stdDeviation="4" result="blur"/>
      <feMerge><feMergeNode in="blur"/><feMergeNode in="SourceGraphic"/></feMerge>
    </filter>
  </defs>

  <!-- Background -->
  <rect width="880" height="400" fill="url(#bg-grad)" rx="6"/>
  <rect width="880" height="400" fill="url(#grid)" rx="6"/>

  <!-- Spores -->
  <circle cx="45" cy="80" r="12" fill="rgba(64,216,192,0.03)"/>
  <circle cx="820" cy="120" r="18" fill="rgba(64,216,192,0.03)"/>
  <circle cx="200" cy="350" r="15" fill="rgba(64,216,192,0.03)"/>
  <circle cx="680" cy="60" r="10" fill="rgba(64,216,192,0.03)"/>
  <circle cx="440" cy="380" r="20" fill="rgba(64,216,192,0.03)"/>

  <!-- Caustics -->
  <ellipse cx="300" cy="200" rx="60" ry="25" fill="rgba(0,200,220,0.02)" transform="rotate(-12 300 200)"/>
  <ellipse cx="600" cy="150" rx="45" ry="18" fill="rgba(0,200,220,0.02)" transform="rotate(8 600 150)"/>

  <!-- Particles -->
  <circle cx="120" cy="95" r="1" fill="rgba(64,216,192,0.15)"/>
  <circle cx="760" cy="280" r="1.2" fill="rgba(64,216,192,0.14)"/>
  <circle cx="440" cy="45" r="0.8" fill="rgba(64,216,192,0.18)"/>
  <circle cx="350" cy="370" r="1.1" fill="rgba(64,216,192,0.12)"/>
  <circle cx="530" cy="310" r="1.5" fill="rgba(64,216,192,0.13)"/>
  <circle cx="85" cy="260" r="0.9" fill="rgba(64,216,192,0.16)"/>
  <circle cx="800" cy="360" r="1.3" fill="rgba(64,216,192,0.12)"/>

  <!-- ════════════════════════════════════════
       TITLE
  ════════════════════════════════════════ -->
  <text x="440" y="30" text-anchor="middle" fill="#f0f8f5" font-family="Georgia,serif" font-size="14" font-weight="300" letter-spacing="0.03em">Flux d'artefact entre personas</text>

  <!-- ════════════════════════════════════════
       COLUMN HEADERS
  ════════════════════════════════════════ -->
  <text x="140" y="62" text-anchor="middle" fill="rgba(64,216,192,0.5)" font-family="IBM Plex Mono,monospace" font-size="9" letter-spacing="0.1em" text-transform="uppercase">ARCHITECTE</text>
  <text x="440" y="62" text-anchor="middle" fill="rgba(64,216,192,0.5)" font-family="IBM Plex Mono,monospace" font-size="9" letter-spacing="0.1em" text-transform="uppercase">SHARED/</text>
  <text x="740" y="62" text-anchor="middle" fill="rgba(64,216,192,0.5)" font-family="IBM Plex Mono,monospace" font-size="9" letter-spacing="0.1em" text-transform="uppercase">DEV</text>

  <!-- Column separator lines -->
  <line x1="290" y1="50" x2="290" y2="340" stroke="rgba(64,180,160,0.08)" stroke-width="0.5" stroke-dasharray="4 4"/>
  <line x1="590" y1="50" x2="590" y2="340" stroke="rgba(64,180,160,0.08)" stroke-width="0.5" stroke-dasharray="4 4"/>

  <!-- ════════════════════════════════════════
       STEP 1 — Architecte rédige review
  ════════════════════════════════════════ -->
  <rect x="55" y="85" width="170" height="36" rx="4" fill="rgba(64,216,192,0.04)" stroke="rgba(64,180,160,0.2)" stroke-width="0.8"/>
  <text x="140" y="107" text-anchor="middle" fill="rgba(64,216,192,0.4)" font-family="Inter,sans-serif" font-size="9">redige review</text>

  <!-- Arrow 1: Architecte → shared/ -->
  <path d="M 225 103 C 290 103, 310 103, 355 103" fill="none" stroke="rgba(64,216,192,0.2)" stroke-width="1"/>
  <path d="M7,-3.5 L0,0 L7,3.5Z" fill="rgba(64,216,192,0.3)" transform="translate(360,103) rotate(0)"/>

  <!-- File in shared/ -->
  <rect x="365" y="85" width="150" height="36" rx="4" fill="rgba(167,139,250,0.06)" stroke="rgba(167,139,250,0.2)" stroke-width="0.8"/>
  <text x="440" y="101" text-anchor="middle" fill="rgba(167,139,250,0.6)" font-family="IBM Plex Mono,monospace" font-size="7">review/</text>
  <text x="440" y="113" text-anchor="middle" fill="rgba(167,139,250,0.5)" font-family="IBM Plex Mono,monospace" font-size="7">review-xyz-mira.md</text>

  <!-- ════════════════════════════════════════
       STEP 2 — Dev lit la review
  ════════════════════════════════════════ -->
  <!-- Arrow 2: shared/ → Dev -->
  <path d="M 515 103 C 580 103, 600 140, 650 155" fill="none" stroke="rgba(64,216,192,0.2)" stroke-width="1"/>
  <path d="M7,-3.5 L0,0 L7,3.5Z" fill="rgba(64,216,192,0.3)" transform="translate(655,157) rotate(20)"/>

  <rect x="655" y="140" width="170" height="36" rx="4" fill="rgba(64,216,192,0.04)" stroke="rgba(64,180,160,0.2)" stroke-width="0.8"/>
  <text x="740" y="162" text-anchor="middle" fill="rgba(64,216,192,0.4)" font-family="Inter,sans-serif" font-size="9">lit la review</text>

  <!-- ════════════════════════════════════════
       STEP 3 — Dev rédige réponse
  ════════════════════════════════════════ -->
  <rect x="655" y="190" width="170" height="36" rx="4" fill="rgba(64,216,192,0.04)" stroke="rgba(64,180,160,0.2)" stroke-width="0.8"/>
  <text x="740" y="212" text-anchor="middle" fill="rgba(64,216,192,0.4)" font-family="Inter,sans-serif" font-size="9">redige reponse</text>

  <!-- Arrow 3: Dev → shared/ -->
  <path d="M 655 208 C 600 208, 580 220, 515 235" fill="none" stroke="rgba(64,216,192,0.2)" stroke-width="1"/>
  <path d="M7,-3.5 L0,0 L7,3.5Z" fill="rgba(64,216,192,0.3)" transform="translate(510,236) rotate(165)"/>

  <!-- File in shared/ -->
  <rect x="355" y="220" width="170" height="36" rx="4" fill="rgba(167,139,250,0.06)" stroke="rgba(167,139,250,0.2)" stroke-width="0.8"/>
  <text x="440" y="236" text-anchor="middle" fill="rgba(167,139,250,0.6)" font-family="IBM Plex Mono,monospace" font-size="7">notes/</text>
  <text x="440" y="248" text-anchor="middle" fill="rgba(167,139,250,0.5)" font-family="IBM Plex Mono,monospace" font-size="7">note-mira-xyz-axel.md</text>

  <!-- ════════════════════════════════════════
       STEP 4 — Architecte lit la note
  ════════════════════════════════════════ -->
  <!-- Arrow 4: shared/ → Architecte -->
  <path d="M 355 238 C 290 238, 270 238, 225 238" fill="none" stroke="rgba(64,216,192,0.2)" stroke-width="1"/>
  <path d="M7,-3.5 L0,0 L7,3.5Z" fill="rgba(64,216,192,0.3)" transform="translate(220,238) rotate(180)"/>

  <rect x="55" y="220" width="170" height="36" rx="4" fill="rgba(64,216,192,0.04)" stroke="rgba(64,180,160,0.2)" stroke-width="0.8"/>
  <text x="140" y="242" text-anchor="middle" fill="rgba(64,216,192,0.4)" font-family="Inter,sans-serif" font-size="9">lit la note</text>

  <!-- ════════════════════════════════════════
       STEP 5 — PO tranche
  ════════════════════════════════════════ -->
  <!-- Arrow down from shared/ -->
  <line x1="440" y1="256" x2="440" y2="290" stroke="rgba(64,216,192,0.15)" stroke-width="1"/>
  <path d="M7,-3.5 L0,0 L7,3.5Z" fill="rgba(64,216,192,0.25)" transform="translate(440,295) rotate(90)"/>

  <!-- PO box -->
  <rect x="370" y="300" width="140" height="40" rx="4" fill="rgba(167,139,250,0.06)" stroke="rgba(167,139,250,0.25)" stroke-width="1" filter="url(#glow-sm)"/>
  <text x="440" y="317" text-anchor="middle" fill="rgba(167,139,250,0.7)" font-family="IBM Plex Mono,monospace" font-size="9" letter-spacing="0.1em">PO</text>
  <text x="440" y="331" text-anchor="middle" fill="rgba(64,216,192,0.4)" font-family="Inter,sans-serif" font-size="8">lit les deux, tranche</text>

  <!-- ════════════════════════════════════════
       STEP NUMBERS
  ════════════════════════════════════════ -->
  <circle cx="42" cy="103" r="8" fill="rgba(64,216,192,0.06)" stroke="rgba(64,216,192,0.15)" stroke-width="0.5"/>
  <text x="42" y="106" text-anchor="middle" fill="rgba(64,216,192,0.35)" font-family="IBM Plex Mono,monospace" font-size="7">1</text>

  <circle cx="842" cy="155" r="8" fill="rgba(64,216,192,0.06)" stroke="rgba(64,216,192,0.15)" stroke-width="0.5"/>
  <text x="842" y="158" text-anchor="middle" fill="rgba(64,216,192,0.35)" font-family="IBM Plex Mono,monospace" font-size="7">2</text>

  <circle cx="842" cy="208" r="8" fill="rgba(64,216,192,0.06)" stroke="rgba(64,216,192,0.15)" stroke-width="0.5"/>
  <text x="842" y="211" text-anchor="middle" fill="rgba(64,216,192,0.35)" font-family="IBM Plex Mono,monospace" font-size="7">3</text>

  <circle cx="42" cy="238" r="8" fill="rgba(64,216,192,0.06)" stroke="rgba(64,216,192,0.15)" stroke-width="0.5"/>
  <text x="42" y="241" text-anchor="middle" fill="rgba(64,216,192,0.35)" font-family="IBM Plex Mono,monospace" font-size="7">4</text>

  <circle cx="440" cy="280" r="8" fill="rgba(167,139,250,0.08)" stroke="rgba(167,139,250,0.2)" stroke-width="0.5"/>
  <text x="440" y="283" text-anchor="middle" fill="rgba(167,139,250,0.45)" font-family="IBM Plex Mono,monospace" font-size="7">5</text>

  <!-- ════════════════════════════════════════
       FOOTER
  ════════════════════════════════════════ -->
  <line x1="40" y1="365" x2="840" y2="365" stroke="rgba(64,180,160,0.12)" stroke-width="0.5"/>
  <text x="440" y="382" text-anchor="middle" fill="rgba(64,216,192,0.25)" font-family="IBM Plex Mono,monospace" font-size="7" letter-spacing="0.05em">voix — flux d'artefact inter-personas</text>

</svg>