<?xml version="1.0" encoding="UTF-8"?>
<!-- Fig. — Pattern Challenger — 05/04/2026 -->
<svg viewBox="0 0 500 320" xmlns="http://www.w3.org/2000/svg" font-family="IBM Plex Mono,monospace">

  <defs>
    <radialGradient id="bg-grad" cx="50%" cy="40%" r="70%">
      <stop offset="0%" stop-color="#0a4858"/>
      <stop offset="100%" stop-color="#041c24"/>
    </radialGradient>
    <pattern id="grid" width="20" height="20" patternUnits="userSpaceOnUse">
      <path d="M 20 0 L 0 0 0 20" fill="none" stroke="rgba(0,200,220,0.06)" stroke-width="0.5"/>
    </pattern>
  </defs>
  <rect width="500" height="320" fill="url(#bg-grad)" rx="6"/>
  <rect width="500" height="320" fill="url(#grid)" rx="6"/>

  <!-- ════════════════════════════════════════
       TITRE
  ════════════════════════════════════════ -->
  <text x="250" y="28" text-anchor="middle" fill="#f0f8f5" font-family="Georgia,serif" font-size="14" font-weight="300" letter-spacing="0.03em">Pattern — Challenger</text>

  <!-- ════════════════════════════════════════
       PRODUCTEUR
  ════════════════════════════════════════ -->
  <rect x="40" y="70" width="130" height="110" rx="4" fill="rgba(79,138,255,0.05)" stroke="rgba(79,138,255,0.2)" stroke-width="1.2"/>
  <text x="105" y="130" text-anchor="middle" fill="#4f8aff" font-size="9">Producteur</text>

  <!-- ════════════════════════════════════════
       FLECHES PRODUCTEUR → CHALLENGERS
  ════════════════════════════════════════ -->
  <line x1="170" y1="100" x2="255" y2="85" stroke="rgba(64,216,192,0.15)" stroke-width="1"/>
  <path d="M7,-3.5 L0,0 L7,3.5Z" fill="rgba(64,216,192,0.25)" transform="translate(260,83) rotate(155)"/>

  <line x1="170" y1="125" x2="255" y2="130" stroke="rgba(64,216,192,0.15)" stroke-width="1"/>
  <path d="M7,-3.5 L0,0 L7,3.5Z" fill="rgba(64,216,192,0.25)" transform="translate(260,130) rotate(177)"/>

  <line x1="170" y1="150" x2="255" y2="175" stroke="rgba(64,216,192,0.15)" stroke-width="1"/>
  <path d="M7,-3.5 L0,0 L7,3.5Z" fill="rgba(64,216,192,0.25)" transform="translate(260,177) rotate(200)"/>

  <!-- ════════════════════════════════════════
       CHALLENGERS
  ════════════════════════════════════════ -->
  <text x="275" y="55" text-anchor="middle" fill="#e05050" font-size="7">bloquant</text>

  <!-- Challenger 1 (green) -->
  <rect x="262" y="60" width="190" height="40" rx="3" fill="rgba(61,220,132,0.05)" stroke="rgba(61,220,132,0.2)" stroke-width="0.7"/>
  <text x="305" y="84" text-anchor="start" fill="rgba(64,216,192,0.6)" font-size="8">Challenger 1</text>
  <text x="410" y="84" text-anchor="start" fill="rgba(64,216,192,0.35)" font-size="7">(axe A)</text>
  <circle cx="275" cy="80" r="4" fill="#e05050"/>
  <text x="275" y="82" text-anchor="middle" font-size="5" fill="#041c24" font-weight="700">!</text>

  <!-- Challenger 2 (green) -->
  <rect x="262" y="110" width="190" height="40" rx="3" fill="rgba(61,220,132,0.05)" stroke="rgba(61,220,132,0.2)" stroke-width="0.7"/>
  <text x="305" y="134" text-anchor="start" fill="rgba(64,216,192,0.6)" font-size="8">Challenger 2</text>
  <text x="410" y="134" text-anchor="start" fill="rgba(64,216,192,0.35)" font-size="7">(axe B)</text>
  <circle cx="275" cy="130" r="4" fill="#e05050"/>
  <text x="275" y="132" text-anchor="middle" font-size="5" fill="#041c24" font-weight="700">!</text>

  <!-- Challenger 3 (green) -->
  <rect x="262" y="160" width="190" height="40" rx="3" fill="rgba(61,220,132,0.05)" stroke="rgba(61,220,132,0.2)" stroke-width="0.7"/>
  <text x="305" y="184" text-anchor="start" fill="rgba(64,216,192,0.6)" font-size="8">Challenger 3</text>
  <text x="410" y="184" text-anchor="start" fill="rgba(64,216,192,0.35)" font-size="7">(axe C)</text>
  <circle cx="275" cy="180" r="4" fill="#e05050"/>
  <text x="275" y="182" text-anchor="middle" font-size="5" fill="#041c24" font-weight="700">!</text>

  <!-- ════════════════════════════════════════
       FLECHES CHALLENGERS → PO
  ════════════════════════════════════════ -->
  <line x1="357" y1="200" x2="310" y2="248" stroke="rgba(64,216,192,0.15)" stroke-width="1"/>
  <path d="M7,-3.5 L0,0 L7,3.5Z" fill="rgba(64,216,192,0.25)" transform="translate(310,248) rotate(-45)"/>

  <line x1="357" y1="200" x2="357" y2="248" stroke="rgba(64,216,192,0.15)" stroke-width="1"/>
  <path d="M7,-3.5 L0,0 L7,3.5Z" fill="rgba(64,216,192,0.25)" transform="translate(357,248) rotate(-90)"/>

  <line x1="357" y1="200" x2="404" y2="248" stroke="rgba(64,216,192,0.15)" stroke-width="1"/>
  <path d="M7,-3.5 L0,0 L7,3.5Z" fill="rgba(64,216,192,0.25)" transform="translate(404,248) rotate(-135)"/>

  <!-- ════════════════════════════════════════
       PO
  ════════════════════════════════════════ -->
  <rect x="270" y="250" width="180" height="42" rx="4" fill="rgba(212,160,48,0.05)" stroke="rgba(212,160,48,0.2)" stroke-width="1.2"/>
  <text x="360" y="275" text-anchor="middle" fill="#d4a030" font-size="9">PO</text>
  <text x="360" y="286" text-anchor="middle" fill="rgba(64,216,192,0.35)" font-size="7">resultat consolide</text>

  <!-- ════════════════════════════════════════
       ANNOTATION
  ════════════════════════════════════════ -->
  <text x="105" y="210" text-anchor="middle" fill="rgba(64,216,192,0.35)" font-size="7">produit un artefact</text>
  <text x="105" y="220" text-anchor="middle" fill="rgba(64,216,192,0.35)" font-size="7">unique</text>

  <!-- ════════════════════════════════════════
       SPORES
  ════════════════════════════════════════ -->
  <circle cx="470" cy="260" r="1.2" fill="rgba(64,216,192,0.04)"/>
  <circle cx="60" cy="280" r="1.0" fill="rgba(64,216,192,0.04)"/>
  <circle cx="420" cy="45" r="1.4" fill="rgba(64,216,192,0.04)"/>
  <circle cx="30" cy="50" r="0.9" fill="rgba(64,216,192,0.04)"/>

  <!-- ════════════════════════════════════════
       FOOTER
  ════════════════════════════════════════ -->
  <text x="250" y="310" text-anchor="middle" fill="rgba(64,216,192,0.2)" font-size="7">Voix — methode Oxynoe — 05/04/2026</text>

</svg>