<?xml version="1.0" encoding="UTF-8"?>
<!-- Fig. — Workflow Chaine produit — 05/04/2026 -->
<svg viewBox="0 0 700 220" xmlns="http://www.w3.org/2000/svg" font-family="IBM Plex Mono,monospace">

  <defs>
    <radialGradient id="bg-grad" cx="50%" cy="40%" r="70%">
      <stop offset="0%" stop-color="#0a4858"/>
      <stop offset="100%" stop-color="#041c24"/>
    </radialGradient>
    <pattern id="grid" width="20" height="20" patternUnits="userSpaceOnUse">
      <path d="M 20 0 L 0 0 0 20" fill="none" stroke="rgba(0,200,220,0.06)" stroke-width="0.5"/>
    </pattern>
  </defs>
  <rect width="700" height="220" fill="url(#bg-grad)" rx="6"/>
  <rect width="700" height="220" fill="url(#grid)" rx="6"/>

  <!-- ════════════════════════════════════════
       TITRE
  ════════════════════════════════════════ -->
  <text x="350" y="32" text-anchor="middle" fill="#f0f8f5" font-family="Georgia,serif" font-size="14" font-weight="300" letter-spacing="0.03em">Workflow — Product chain</text>

  <!-- ════════════════════════════════════════
       ETAPES
  ════════════════════════════════════════ -->

  <!-- Step 1: Orchestrator prioritizes (amber) -->
  <rect x="22" y="60" width="88" height="44" rx="3" fill="rgba(212,160,48,0.05)" stroke="rgba(212,160,48,0.2)" stroke-width="0.7"/>
  <text x="66" y="86" text-anchor="middle" fill="rgba(64,216,192,0.6)" font-size="8.5">Orchestrator prioritizes</text>
  <text x="66" y="118" text-anchor="middle" fill="rgba(64,216,192,0.35)" font-size="7">Orchestrator</text>

  <!-- Arrow 1→2 -->
  <line x1="114" y1="82" x2="130" y2="82" stroke="rgba(64,216,192,0.15)" stroke-width="1"/>
  <path d="M7,-3.5 L0,0 L7,3.5Z" fill="rgba(64,216,192,0.25)" transform="translate(136,82) rotate(180)"/>

  <!-- Step 2: Architect specifies (green) -->
  <rect x="140" y="60" width="88" height="44" rx="3" fill="rgba(61,220,132,0.05)" stroke="rgba(61,220,132,0.2)" stroke-width="0.7"/>
  <text x="184" y="86" text-anchor="middle" fill="rgba(64,216,192,0.6)" font-size="8.5">Architect specifies</text>
  <text x="184" y="118" text-anchor="middle" fill="rgba(64,216,192,0.35)" font-size="7">Architect</text>

  <!-- Arrow 2→3 -->
  <line x1="232" y1="82" x2="248" y2="82" stroke="rgba(64,216,192,0.15)" stroke-width="1"/>
  <path d="M7,-3.5 L0,0 L7,3.5Z" fill="rgba(64,216,192,0.25)" transform="translate(254,82) rotate(180)"/>

  <!-- Step 3: Dev implements (blue) -->
  <rect x="258" y="60" width="92" height="44" rx="3" fill="rgba(79,138,255,0.05)" stroke="rgba(79,138,255,0.2)" stroke-width="0.7"/>
  <text x="304" y="86" text-anchor="middle" fill="rgba(64,216,192,0.6)" font-size="8.5">Dev implements</text>
  <text x="304" y="118" text-anchor="middle" fill="rgba(64,216,192,0.35)" font-size="7">Dev</text>

  <!-- Arrow 3→4 -->
  <line x1="354" y1="82" x2="370" y2="82" stroke="rgba(64,216,192,0.15)" stroke-width="1"/>
  <path d="M7,-3.5 L0,0 L7,3.5Z" fill="rgba(64,216,192,0.25)" transform="translate(376,82) rotate(180)"/>

  <!-- Step 4: UX challenge (coral) -->
  <rect x="380" y="60" width="88" height="44" rx="3" fill="rgba(224,80,80,0.05)" stroke="rgba(224,80,80,0.2)" stroke-width="0.7"/>
  <text x="424" y="86" text-anchor="middle" fill="rgba(64,216,192,0.6)" font-size="8.5">UX challenge</text>
  <text x="424" y="118" text-anchor="middle" fill="rgba(64,216,192,0.35)" font-size="7">UX</text>

  <!-- Arrow 4→5 -->
  <line x1="472" y1="82" x2="488" y2="82" stroke="rgba(64,216,192,0.15)" stroke-width="1"/>
  <path d="M7,-3.5 L0,0 L7,3.5Z" fill="rgba(64,216,192,0.25)" transform="translate(494,82) rotate(180)"/>

  <!-- Step 5: Research verifies (violet) -->
  <rect x="498" y="60" width="96" height="44" rx="3" fill="rgba(167,139,250,0.05)" stroke="rgba(167,139,250,0.2)" stroke-width="0.7"/>
  <text x="546" y="86" text-anchor="middle" fill="rgba(64,216,192,0.6)" font-size="8.5">Research verifies</text>
  <text x="546" y="118" text-anchor="middle" fill="rgba(64,216,192,0.35)" font-size="7">Research</text>

  <!-- Arrow 5→6 -->
  <line x1="598" y1="82" x2="610" y2="82" stroke="rgba(64,216,192,0.15)" stroke-width="1"/>
  <path d="M7,-3.5 L0,0 L7,3.5Z" fill="rgba(64,216,192,0.25)" transform="translate(616,82) rotate(180)"/>

  <!-- Step 6: Orchestrator arbitrates (amber) -->
  <rect x="620" y="60" width="64" height="44" rx="3" fill="rgba(212,160,48,0.05)" stroke="rgba(212,160,48,0.2)" stroke-width="0.7"/>
  <text x="652" y="86" text-anchor="middle" fill="rgba(64,216,192,0.6)" font-size="8.5">Orchestrator arbitrates</text>
  <text x="652" y="118" text-anchor="middle" fill="rgba(64,216,192,0.35)" font-size="7">Orchestrator</text>

  <!-- ════════════════════════════════════════
       CYCLE
  ════════════════════════════════════════ -->
  <path d="M 652 108 L 652 160 Q 652 170 642 170 L 76 170 Q 66 170 66 160 L 66 108"
        fill="none" stroke="rgba(212,160,48,0.2)" stroke-width="1" stroke-dasharray="4,3"/>
  <path d="M7,-3.5 L0,0 L7,3.5Z" fill="rgba(212,160,48,0.25)" transform="translate(66,108) rotate(90)"/>
  <text x="350" y="184" text-anchor="middle" fill="rgba(64,216,192,0.25)" font-size="7">cycle</text>

  <!-- ════════════════════════════════════════
       SPORES
  ════════════════════════════════════════ -->
  <circle cx="55" cy="200" r="1.1" fill="rgba(64,216,192,0.04)"/>
  <circle cx="430" cy="195" r="1.3" fill="rgba(64,216,192,0.04)"/>
  <circle cx="680" cy="180" r="0.9" fill="rgba(64,216,192,0.04)"/>
  <circle cx="250" cy="205" r="1.0" fill="rgba(64,216,192,0.04)"/>

  <!-- ════════════════════════════════════════
       FOOTER
  ════════════════════════════════════════ -->
  <text x="350" y="208" text-anchor="middle" fill="rgba(64,216,192,0.2)" font-size="7">SOFIA — Oxynoe method — 05/04/2026</text>

</svg>