<?xml version="1.0" encoding="UTF-8"?>
<!-- Fig. — Instance anatomy SOFIA — 27/04/2026 -->
<svg viewBox="0 0 610 380" xmlns="http://www.w3.org/2000/svg">

  <defs>
    <radialGradient id="bg" cx="50%" cy="40%" r="70%">
      <stop offset="0%" stop-color="#0a4858"/>
      <stop offset="100%" stop-color="#041c24"/>
    </radialGradient>
    <pattern id="grid" width="20" height="20" patternUnits="userSpaceOnUse">
      <path d="M 20 0 L 0 0 0 20" fill="none" stroke="rgba(0,200,220,0.06)" stroke-width="0.5"/>
    </pattern>
  </defs>

  <rect width="610" height="380" fill="url(#bg)" rx="6"/>
  <rect width="610" height="380" fill="url(#grid)" rx="6"/>

  <!-- Titre -->
  <text x="305" y="28" text-anchor="middle"
        fill="#f0f8f5" font-family="Georgia,serif" font-size="14" font-weight="300"
        letter-spacing="0.03em">Instance anatomy</text>

  <!-- ══ CADRE INSTANCE ══ -->
  <rect x="30" y="44" width="550" height="280" rx="8"
        fill="none" stroke="rgba(64,180,160,0.15)" stroke-width="0.8" stroke-dasharray="4,3"/>

  <!-- sofia.md top left -->
  <rect x="44" y="52" width="72" height="16" rx="3"
        fill="rgba(224,80,80,0.06)" stroke="rgba(224,80,80,0.25)" stroke-width="0.5"/>
  <text x="80" y="63" text-anchor="middle"
        fill="rgba(224,80,80,0.55)" font-family="IBM Plex Mono,monospace" font-size="7.5">sofia.md</text>

  <!-- ══ WORKSPACES ══ -->

  <!-- Workspace 1 -->
  <rect x="44" y="80" width="130" height="80" rx="6"
        fill="rgba(64,216,192,0.04)" stroke="rgba(64,180,160,0.22)" stroke-width="0.7"/>
  <text x="109" y="98" text-anchor="middle"
        fill="rgba(64,216,192,0.65)" font-family="IBM Plex Mono,monospace" font-size="9">{space-a}/</text>
  <rect x="58" y="108" width="76" height="15" rx="2"
        fill="rgba(64,216,192,0.06)" stroke="rgba(64,180,160,0.15)" stroke-width="0.4"/>
  <text x="96" y="118" text-anchor="middle"
        fill="rgba(64,216,192,0.45)" font-family="IBM Plex Mono,monospace" font-size="7">CLAUDE.md</text>
  <rect x="58" y="128" width="76" height="15" rx="2"
        fill="rgba(64,216,192,0.06)" stroke="rgba(64,180,160,0.15)" stroke-width="0.4"/>
  <text x="96" y="138" text-anchor="middle"
        fill="rgba(64,216,192,0.45)" font-family="IBM Plex Mono,monospace" font-size="7">sessions/</text>
  <text x="156" y="96" fill="rgba(64,216,192,0.2)" font-size="9">&#x1f512;</text>

  <!-- Workspace 2 -->
  <rect x="190" y="80" width="130" height="80" rx="6"
        fill="rgba(64,216,192,0.04)" stroke="rgba(64,180,160,0.22)" stroke-width="0.7"/>
  <text x="255" y="98" text-anchor="middle"
        fill="rgba(64,216,192,0.65)" font-family="IBM Plex Mono,monospace" font-size="9">{space-b}/</text>
  <rect x="204" y="108" width="76" height="15" rx="2"
        fill="rgba(64,216,192,0.06)" stroke="rgba(64,180,160,0.15)" stroke-width="0.4"/>
  <text x="242" y="118" text-anchor="middle"
        fill="rgba(64,216,192,0.45)" font-family="IBM Plex Mono,monospace" font-size="7">CLAUDE.md</text>
  <rect x="204" y="128" width="76" height="15" rx="2"
        fill="rgba(64,216,192,0.06)" stroke="rgba(64,180,160,0.15)" stroke-width="0.4"/>
  <text x="242" y="138" text-anchor="middle"
        fill="rgba(64,216,192,0.45)" font-family="IBM Plex Mono,monospace" font-size="7">sessions/</text>
  <text x="302" y="96" fill="rgba(64,216,192,0.2)" font-size="9">&#x1f512;</text>

  <!-- Workspace 3 -->
  <rect x="336" y="80" width="130" height="80" rx="6"
        fill="rgba(64,216,192,0.04)" stroke="rgba(64,180,160,0.22)" stroke-width="0.7"/>
  <text x="401" y="98" text-anchor="middle"
        fill="rgba(64,216,192,0.65)" font-family="IBM Plex Mono,monospace" font-size="9">{space-c}/</text>
  <rect x="350" y="108" width="76" height="15" rx="2"
        fill="rgba(64,216,192,0.06)" stroke="rgba(64,180,160,0.15)" stroke-width="0.4"/>
  <text x="388" y="118" text-anchor="middle"
        fill="rgba(64,216,192,0.45)" font-family="IBM Plex Mono,monospace" font-size="7">CLAUDE.md</text>
  <rect x="350" y="128" width="76" height="15" rx="2"
        fill="rgba(64,216,192,0.06)" stroke="rgba(64,180,160,0.15)" stroke-width="0.4"/>
  <text x="388" y="138" text-anchor="middle"
        fill="rgba(64,216,192,0.45)" font-family="IBM Plex Mono,monospace" font-size="7">sessions/</text>
  <text x="448" y="96" fill="rgba(64,216,192,0.2)" font-size="9">&#x1f512;</text>

  <!-- Workspace ... -->
  <rect x="482" y="80" width="80" height="80" rx="6"
        fill="rgba(64,216,192,0.02)" stroke="rgba(64,180,160,0.12)" stroke-width="0.5"
        stroke-dasharray="3,3"/>
  <text x="522" y="124" text-anchor="middle"
        fill="rgba(64,216,192,0.3)" font-family="IBM Plex Mono,monospace" font-size="11">...</text>

  <!-- ══ FLECHES vers shared ══ -->
  <line x1="109" y1="160" x2="109" y2="190" stroke="rgba(167,139,250,0.2)" stroke-width="0.6"/>
  <polygon points="105,190 109,198 113,190" fill="rgba(167,139,250,0.25)"/>
  <line x1="255" y1="160" x2="255" y2="190" stroke="rgba(167,139,250,0.2)" stroke-width="0.6"/>
  <polygon points="251,190 255,198 259,190" fill="rgba(167,139,250,0.25)"/>
  <line x1="401" y1="160" x2="401" y2="190" stroke="rgba(167,139,250,0.2)" stroke-width="0.6"/>
  <polygon points="397,190 401,198 405,190" fill="rgba(167,139,250,0.25)"/>

  <!-- Fleches retour -->
  <line x1="123" y1="198" x2="123" y2="160" stroke="rgba(167,139,250,0.12)" stroke-width="0.5"/>
  <polygon points="119,164 123,156 127,164" fill="rgba(167,139,250,0.15)"/>
  <line x1="269" y1="198" x2="269" y2="160" stroke="rgba(167,139,250,0.12)" stroke-width="0.5"/>
  <polygon points="265,164 269,156 273,164" fill="rgba(167,139,250,0.15)"/>
  <line x1="415" y1="198" x2="415" y2="160" stroke="rgba(167,139,250,0.12)" stroke-width="0.5"/>
  <polygon points="411,164 415,156 419,164" fill="rgba(167,139,250,0.15)"/>

  <!-- ══ SHARED ══ -->
  <rect x="44" y="200" width="520" height="80" rx="6"
        fill="rgba(167,139,250,0.05)" stroke="rgba(167,139,250,0.25)" stroke-width="0.7"/>

  <text x="305" y="220" text-anchor="middle"
        fill="rgba(167,139,250,0.65)" font-family="IBM Plex Mono,monospace" font-size="10">shared/</text>

  <!-- Contenu shared -->
  <rect x="60" y="232" width="95" height="16" rx="2"
        fill="rgba(167,139,250,0.04)" stroke="rgba(167,139,250,0.12)" stroke-width="0.4"/>
  <text x="107" y="243" text-anchor="middle"
        fill="rgba(167,139,250,0.45)" font-family="IBM Plex Mono,monospace" font-size="7">conventions.md</text>

  <rect x="165" y="232" width="55" height="16" rx="2"
        fill="rgba(167,139,250,0.04)" stroke="rgba(167,139,250,0.12)" stroke-width="0.4"/>
  <text x="192" y="243" text-anchor="middle"
        fill="rgba(167,139,250,0.45)" font-family="IBM Plex Mono,monospace" font-size="7">notes/</text>

  <rect x="230" y="232" width="60" height="16" rx="2"
        fill="rgba(167,139,250,0.04)" stroke="rgba(167,139,250,0.12)" stroke-width="0.4"/>
  <text x="260" y="243" text-anchor="middle"
        fill="rgba(167,139,250,0.45)" font-family="IBM Plex Mono,monospace" font-size="7">review/</text>

  <rect x="300" y="232" width="90" height="16" rx="2"
        fill="rgba(167,139,250,0.04)" stroke="rgba(167,139,250,0.12)" stroke-width="0.4"/>
  <text x="345" y="243" text-anchor="middle"
        fill="rgba(167,139,250,0.45)" font-family="IBM Plex Mono,monospace" font-size="7">roadmap-*.md</text>

  <rect x="400" y="232" width="55" height="16" rx="2"
        fill="rgba(167,139,250,0.04)" stroke="rgba(167,139,250,0.12)" stroke-width="0.4"/>
  <text x="427" y="243" text-anchor="middle"
        fill="rgba(167,139,250,0.45)" font-family="IBM Plex Mono,monospace" font-size="7">orga/</text>

  <text x="305" y="268" text-anchor="middle"
        fill="rgba(167,139,250,0.3)" font-family="Inter,sans-serif" font-size="7.5"
        font-style="italic">orga/ = personas + contexts · the only space all personas read and write</text>

  <!-- ══ ANNOTATIONS ══ -->
  <text x="305" y="302" text-anchor="middle"
        fill="rgba(240,248,245,0.3)" font-family="Inter,sans-serif" font-size="8">
    Each space is isolated. Personas communicate only through shared/.
  </text>
  <text x="305" y="316" text-anchor="middle"
        fill="rgba(240,248,245,0.2)" font-family="Inter,sans-serif" font-size="7.5">
    CLAUDE.md = persona instructions (runtime). sessions/ = exchange traces. conventions.md = instance rules.
  </text>

  <!-- ══ SPORES ══ -->
  <circle cx="560" cy="310" r="1.1" fill="rgba(64,216,192,0.04)"/>
  <circle cx="60" cy="340" r="0.9" fill="rgba(64,216,192,0.04)"/>
  <circle cx="400" cy="350" r="1.3" fill="rgba(64,216,192,0.04)"/>

  <!-- ══ FOOTER ══ -->
  <text x="305" y="365" text-anchor="middle" fill="rgba(64,216,192,0.2)" font-size="7" font-family="IBM Plex Mono,monospace">SOFIA — Oxynoe method — 27/04/2026</text>

</svg>
