<?xml version="1.0" encoding="UTF-8"?>
<!-- Fig. — Workflow Onboarding persona — 05/04/2026 -->
<svg viewBox="0 0 700 220" xmlns="http://www.w3.org/2000/svg" font-family="IBM Plex Mono,monospace">

  <defs>
    <radialGradient id="bg-grad" cx="50%" cy="40%" r="70%">
      <stop offset="0%" stop-color="#0a4858"/>
      <stop offset="100%" stop-color="#041c24"/>
    </radialGradient>
    <pattern id="grid" width="20" height="20" patternUnits="userSpaceOnUse">
      <path d="M 20 0 L 0 0 0 20" fill="none" stroke="rgba(0,200,220,0.06)" stroke-width="0.5"/>
    </pattern>
  </defs>
  <rect width="700" height="220" fill="url(#bg-grad)" rx="6"/>
  <rect width="700" height="220" fill="url(#grid)" rx="6"/>

  <!-- ════════════════════════════════════════
       TITRE
  ════════════════════════════════════════ -->
  <text x="350" y="32" text-anchor="middle" fill="#f0f8f5" font-family="Georgia,serif" font-size="14" font-weight="300" letter-spacing="0.03em">Workflow — Onboarding persona</text>

  <!-- ════════════════════════════════════════
       ETAPES
  ════════════════════════════════════════ -->

  <!-- Step 1: Manque constate (coral) -->
  <rect x="38" y="60" width="108" height="44" rx="3" fill="rgba(224,80,80,0.05)" stroke="rgba(224,80,80,0.2)" stroke-width="0.7"/>
  <text x="92" y="80" text-anchor="middle" fill="rgba(64,216,192,0.6)" font-size="8.5">Manque</text>
  <text x="92" y="92" text-anchor="middle" fill="rgba(64,216,192,0.6)" font-size="8.5">constate</text>
  <text x="92" y="118" text-anchor="middle" fill="rgba(64,216,192,0.35)" font-size="7">trigger</text>

  <!-- Arrow 1→2 -->
  <line x1="150" y1="82" x2="170" y2="82" stroke="rgba(64,216,192,0.15)" stroke-width="1"/>
  <path d="M7,-3.5 L0,0 L7,3.5Z" fill="rgba(64,216,192,0.25)" transform="translate(176,82) rotate(180)"/>

  <!-- Step 2: Fiche persona (green) -->
  <rect x="180" y="60" width="108" height="44" rx="3" fill="rgba(61,220,132,0.05)" stroke="rgba(61,220,132,0.2)" stroke-width="0.7"/>
  <text x="234" y="86" text-anchor="middle" fill="rgba(64,216,192,0.6)" font-size="8.5">Fiche persona</text>
  <text x="234" y="118" text-anchor="middle" fill="rgba(64,216,192,0.35)" font-size="7">design</text>

  <!-- Arrow 2→3 -->
  <line x1="292" y1="82" x2="312" y2="82" stroke="rgba(64,216,192,0.15)" stroke-width="1"/>
  <path d="M7,-3.5 L0,0 L7,3.5Z" fill="rgba(64,216,192,0.25)" transform="translate(318,82) rotate(180)"/>

  <!-- Step 3: Workspace (green) -->
  <rect x="322" y="60" width="100" height="44" rx="3" fill="rgba(61,220,132,0.05)" stroke="rgba(61,220,132,0.2)" stroke-width="0.7"/>
  <text x="372" y="86" text-anchor="middle" fill="rgba(64,216,192,0.6)" font-size="8.5">Workspace</text>
  <text x="372" y="118" text-anchor="middle" fill="rgba(64,216,192,0.35)" font-size="7">design</text>

  <!-- Arrow 3→4 -->
  <line x1="426" y1="82" x2="446" y2="82" stroke="rgba(64,216,192,0.15)" stroke-width="1"/>
  <path d="M7,-3.5 L0,0 L7,3.5Z" fill="rgba(64,216,192,0.25)" transform="translate(452,82) rotate(180)"/>

  <!-- Step 4: Calibrage (blue) -->
  <rect x="456" y="60" width="100" height="44" rx="3" fill="rgba(79,138,255,0.05)" stroke="rgba(79,138,255,0.2)" stroke-width="0.7"/>
  <text x="506" y="86" text-anchor="middle" fill="rgba(64,216,192,0.6)" font-size="8.5">Calibrage</text>
  <text x="506" y="118" text-anchor="middle" fill="rgba(64,216,192,0.35)" font-size="7">execution</text>

  <!-- Arrow 4→5 -->
  <line x1="560" y1="82" x2="580" y2="82" stroke="rgba(64,216,192,0.15)" stroke-width="1"/>
  <path d="M7,-3.5 L0,0 L7,3.5Z" fill="rgba(64,216,192,0.25)" transform="translate(586,82) rotate(180)"/>

  <!-- Step 5: 1ere session (blue) -->
  <rect x="590" y="60" width="82" height="44" rx="3" fill="rgba(79,138,255,0.05)" stroke="rgba(79,138,255,0.2)" stroke-width="0.7"/>
  <text x="631" y="86" text-anchor="middle" fill="rgba(64,216,192,0.6)" font-size="8.5">1ere session</text>
  <text x="631" y="118" text-anchor="middle" fill="rgba(64,216,192,0.35)" font-size="7">execution</text>

  <!-- ════════════════════════════════════════
       LEGENDE
  ════════════════════════════════════════ -->
  <rect x="38" y="155" width="10" height="10" rx="2" fill="rgba(224,80,80,0.15)" stroke="rgba(224,80,80,0.4)" stroke-width="0.7"/>
  <text x="54" y="164" fill="rgba(64,216,192,0.35)" font-size="7">Trigger</text>
  <rect x="100" y="155" width="10" height="10" rx="2" fill="rgba(61,220,132,0.15)" stroke="rgba(61,220,132,0.4)" stroke-width="0.7"/>
  <text x="116" y="164" fill="rgba(64,216,192,0.35)" font-size="7">Design</text>
  <rect x="162" y="155" width="10" height="10" rx="2" fill="rgba(79,138,255,0.15)" stroke="rgba(79,138,255,0.4)" stroke-width="0.7"/>
  <text x="178" y="164" fill="rgba(64,216,192,0.35)" font-size="7">Execution</text>

  <!-- ════════════════════════════════════════
       SPORES
  ════════════════════════════════════════ -->
  <circle cx="660" cy="185" r="1.1" fill="rgba(64,216,192,0.04)"/>
  <circle cx="280" cy="200" r="1.3" fill="rgba(64,216,192,0.04)"/>
  <circle cx="500" cy="170" r="0.9" fill="rgba(64,216,192,0.04)"/>
  <circle cx="100" cy="195" r="1.4" fill="rgba(64,216,192,0.04)"/>

  <!-- ════════════════════════════════════════
       FOOTER
  ════════════════════════════════════════ -->
  <text x="350" y="208" text-anchor="middle" fill="rgba(64,216,192,0.2)" font-size="7">Voix — methode Oxynoe — 05/04/2026</text>

</svg>