<svg xmlns="http://www.w3.org/2000/svg" viewBox="0 0 880 560" width="880" height="560">
  <defs>
    <radialGradient id="bg" cx="50%" cy="50%" r="70%">
      <stop offset="0%" stop-color="#0a4858"/>
      <stop offset="100%" stop-color="#041c24"/>
    </radialGradient>
    <filter id="glow">
      <feGaussianBlur stdDeviation="6" result="blur"/>
      <feComposite in="SourceGraphic" in2="blur" operator="over"/>
    </filter>
  </defs>

  <rect width="880" height="560" fill="url(#bg)"/>

  <!-- Grille fine -->
  <g opacity="0.06" stroke="#00c8dc" stroke-width="0.3">
    <line x1="0" y1="20" x2="880" y2="20"/><line x1="0" y1="40" x2="880" y2="40"/>
    <line x1="0" y1="60" x2="880" y2="60"/><line x1="0" y1="80" x2="880" y2="80"/>
    <line x1="0" y1="100" x2="880" y2="100"/><line x1="0" y1="120" x2="880" y2="120"/>
    <line x1="0" y1="140" x2="880" y2="140"/><line x1="0" y1="160" x2="880" y2="160"/>
    <line x1="0" y1="180" x2="880" y2="180"/><line x1="0" y1="200" x2="880" y2="200"/>
    <line x1="0" y1="220" x2="880" y2="220"/><line x1="0" y1="240" x2="880" y2="240"/>
    <line x1="0" y1="260" x2="880" y2="260"/><line x1="0" y1="280" x2="880" y2="280"/>
    <line x1="0" y1="300" x2="880" y2="300"/><line x1="0" y1="320" x2="880" y2="320"/>
    <line x1="0" y1="340" x2="880" y2="340"/><line x1="0" y1="360" x2="880" y2="360"/>
  </g>

  <!-- Spores -->
  <circle cx="80" cy="100" r="45" fill="#40d8c0" opacity="0.03"/>
  <circle cx="780" cy="80" r="35" fill="#40d8c0" opacity="0.03"/>
  <circle cx="440" cy="480" r="50" fill="#40d8c0" opacity="0.03"/>
  <circle cx="160" cy="420" r="30" fill="#40d8c0" opacity="0.04"/>

  <!-- Caustics -->
  <ellipse cx="440" cy="200" rx="180" ry="50" fill="#00c8dc" opacity="0.015" transform="rotate(-3,440,200)"/>
  <ellipse cx="200" cy="400" rx="100" ry="30" fill="#00c8dc" opacity="0.02" transform="rotate(6,200,400)"/>

  <!-- Particules -->
  <circle cx="100" cy="160" r="1" fill="#40d8c0" opacity="0.15"/>
  <circle cx="760" cy="140" r="1.2" fill="#40d8c0" opacity="0.12"/>
  <circle cx="340" cy="520" r="0.8" fill="#40d8c0" opacity="0.18"/>
  <circle cx="600" cy="500" r="1.1" fill="#40d8c0" opacity="0.14"/>
  <circle cx="50" cy="350" r="0.9" fill="#40d8c0" opacity="0.16"/>

  <!-- Label section -->
  <text x="440" y="38" text-anchor="middle" font-family="'IBM Plex Mono', monospace" font-size="11" fill="rgba(64,216,192,0.5)" letter-spacing="0.12em">ANATOMIE D'UN PERSONA</text>
  <text x="440" y="56" text-anchor="middle" font-family="Georgia, serif" font-size="10" fill="rgba(64,216,192,0.25)" font-style="italic">ce qui le definit, ce qu'il produit, ce qu'il echange</text>

  <!-- ════════════════════════════════════════
       PERSONA (centre)
  ════════════════════════════════════════ -->
  <rect x="270" y="80" width="340" height="190" rx="8" fill="rgba(64,216,192,0.05)" stroke="rgba(64,216,192,0.3)" stroke-width="1"/>

  <text x="440" y="108" text-anchor="middle" font-family="Georgia, serif" font-size="20" fill="#f0f8f5" font-weight="300" letter-spacing="0.03em">Persona</text>

  <!-- CLAUDE.md -->
  <rect x="300" y="124" width="280" height="28" rx="4" fill="rgba(64,216,192,0.06)" stroke="rgba(64,216,192,0.2)" stroke-width="0.6"/>
  <text x="440" y="143" text-anchor="middle" font-family="'IBM Plex Mono', monospace" font-size="9" fill="rgba(64,216,192,0.6)" letter-spacing="0.06em">CLAUDE.MD — LE CONTRAT</text>

  <!-- 4 composants -->
  <rect x="300" y="162" width="132" height="26" rx="4" fill="rgba(64,216,192,0.03)" stroke="rgba(64,180,160,0.15)" stroke-width="0.5"/>
  <text x="366" y="179" text-anchor="middle" font-family="Inter, system-ui, sans-serif" font-size="9" fill="rgba(64,216,192,0.4)">Identite + Posture</text>

  <rect x="442" y="162" width="138" height="26" rx="4" fill="rgba(64,216,192,0.03)" stroke="rgba(64,180,160,0.15)" stroke-width="0.5"/>
  <text x="511" y="179" text-anchor="middle" font-family="Inter, system-ui, sans-serif" font-size="9" fill="rgba(64,216,192,0.4)">Perimetre + Interdits</text>

  <rect x="300" y="196" width="132" height="26" rx="4" fill="rgba(64,216,192,0.03)" stroke="rgba(64,180,160,0.15)" stroke-width="0.5"/>
  <text x="366" y="213" text-anchor="middle" font-family="Inter, system-ui, sans-serif" font-size="9" fill="rgba(64,216,192,0.4)">Conventions</text>

  <rect x="442" y="196" width="138" height="26" rx="4" fill="rgba(64,216,192,0.03)" stroke="rgba(64,180,160,0.15)" stroke-width="0.5"/>
  <text x="511" y="213" text-anchor="middle" font-family="Inter, system-ui, sans-serif" font-size="9" fill="rgba(64,216,192,0.4)">Protocole session</text>

  <text x="440" y="256" text-anchor="middle" font-family="Georgia, serif" font-size="9" fill="rgba(64,216,192,0.2)" font-style="italic">1 persona = 1 workspace = 1 CLAUDE.md</text>

  <!-- ════════════════════════════════════════
       SESSIONS (gauche)
  ════════════════════════════════════════ -->
  <rect x="30" y="90" width="210" height="130" rx="8" fill="rgba(64,216,192,0.03)" stroke="rgba(64,180,160,0.18)" stroke-width="0.8"/>

  <text x="135" y="116" text-anchor="middle" font-family="Georgia, serif" font-size="16" fill="#f0f8f5" font-weight="300">Sessions</text>

  <text x="135" y="140" text-anchor="middle" font-family="'IBM Plex Mono', monospace" font-size="8" fill="rgba(64,216,192,0.5)" letter-spacing="0.06em">RESUME OBLIGATOIRE</text>
  <text x="135" y="160" text-anchor="middle" font-family="Inter, system-ui, sans-serif" font-size="9" fill="rgba(64,216,192,0.35)">Produit · Decisions</text>
  <text x="135" y="176" text-anchor="middle" font-family="Inter, system-ui, sans-serif" font-size="9" fill="rgba(64,216,192,0.35)">Notes deposees · Ouvert</text>
  <text x="135" y="202" text-anchor="middle" font-family="Georgia, serif" font-size="8" fill="rgba(64,216,192,0.2)" font-style="italic">le pont entre conversations</text>

  <!-- Fleche sessions → persona -->
  <line x1="242" y1="155" x2="268" y2="155" stroke="rgba(64,216,192,0.25)" stroke-width="0.8"/>
  <polygon points="268,155 262,151 262,159" fill="rgba(64,216,192,0.35)"/>

  <!-- ════════════════════════════════════════
       LIVRABLES (droite)
  ════════════════════════════════════════ -->
  <rect x="640" y="90" width="210" height="130" rx="8" fill="rgba(64,216,192,0.03)" stroke="rgba(64,180,160,0.18)" stroke-width="0.8"/>

  <text x="745" y="116" text-anchor="middle" font-family="Georgia, serif" font-size="16" fill="#f0f8f5" font-weight="300">Livrables</text>

  <text x="745" y="140" text-anchor="middle" font-family="'IBM Plex Mono', monospace" font-size="8" fill="rgba(64,216,192,0.5)" letter-spacing="0.06em">TYPES SELON LE ROLE</text>
  <text x="745" y="160" text-anchor="middle" font-family="Inter, system-ui, sans-serif" font-size="9" fill="rgba(64,216,192,0.35)">specs · code · reviews</text>
  <text x="745" y="176" text-anchor="middle" font-family="Inter, system-ui, sans-serif" font-size="9" fill="rgba(64,216,192,0.35)">notes · maquettes · ADR</text>
  <text x="745" y="202" text-anchor="middle" font-family="Georgia, serif" font-size="8" fill="rgba(64,216,192,0.2)" font-style="italic">nommes, versionnes, adressables</text>

  <!-- Fleche persona → livrables -->
  <line x1="612" y1="155" x2="638" y2="155" stroke="rgba(64,216,192,0.25)" stroke-width="0.8"/>
  <polygon points="638,155 632,151 632,159" fill="rgba(64,216,192,0.35)"/>

  <!-- ════════════════════════════════════════
       BUS SHARED/ (bas centre)
  ════════════════════════════════════════ -->
  <rect x="130" y="310" width="620" height="140" rx="8" fill="rgba(167,139,250,0.04)" stroke="rgba(167,139,250,0.25)" stroke-width="0.8"/>

  <text x="440" y="336" text-anchor="middle" font-family="Georgia, serif" font-size="16" fill="#a78bfa" font-weight="300">Bus shared/</text>
  <text x="440" y="354" text-anchor="middle" font-family="'IBM Plex Mono', monospace" font-size="8" fill="rgba(167,139,250,0.4)" letter-spacing="0.06em">ZONE D'ECHANGE ENTRE PERSONAS</text>

  <!-- Artefacts dans le bus -->
  <rect x="155" y="370" width="100" height="28" rx="4" fill="rgba(167,139,250,0.06)" stroke="rgba(167,139,250,0.18)" stroke-width="0.5"/>
  <text x="205" y="389" text-anchor="middle" font-family="'IBM Plex Mono', monospace" font-size="8" fill="rgba(167,139,250,0.5)">notes/</text>

  <rect x="270" y="370" width="100" height="28" rx="4" fill="rgba(167,139,250,0.06)" stroke="rgba(167,139,250,0.18)" stroke-width="0.5"/>
  <text x="320" y="389" text-anchor="middle" font-family="'IBM Plex Mono', monospace" font-size="8" fill="rgba(167,139,250,0.5)">review/</text>

  <rect x="385" y="370" width="100" height="28" rx="4" fill="rgba(167,139,250,0.06)" stroke="rgba(167,139,250,0.18)" stroke-width="0.5"/>
  <text x="435" y="389" text-anchor="middle" font-family="'IBM Plex Mono', monospace" font-size="8" fill="rgba(167,139,250,0.5)">features/</text>

  <rect x="500" y="370" width="120" height="28" rx="4" fill="rgba(167,139,250,0.06)" stroke="rgba(167,139,250,0.18)" stroke-width="0.5"/>
  <text x="560" y="389" text-anchor="middle" font-family="'IBM Plex Mono', monospace" font-size="8" fill="rgba(167,139,250,0.5)">roadmap-*.md</text>

  <rect x="635" y="370" width="95" height="28" rx="4" fill="rgba(167,139,250,0.06)" stroke="rgba(167,139,250,0.18)" stroke-width="0.5"/>
  <text x="682" y="389" text-anchor="middle" font-family="'IBM Plex Mono', monospace" font-size="8" fill="rgba(167,139,250,0.5)">orga/</text>

  <!-- Frontmatter -->
  <text x="440" y="426" text-anchor="middle" font-family="Georgia, serif" font-size="9" fill="rgba(167,139,250,0.3)" font-style="italic">chaque artefact : de · pour · type · statut · date</text>

  <!-- Mycélium persona → bus -->
  <path d="M 440,272 Q 440,285 438,295 Q 436,305 440,310" fill="none" stroke="rgba(64,180,160,0.1)" stroke-width="0.5"/>
  <line x1="440" y1="272" x2="440" y2="308" stroke="rgba(167,139,250,0.2)" stroke-width="0.8"/>
  <polygon points="440,308 436,300 444,300" fill="rgba(167,139,250,0.3)"/>

  <!-- Persona B (gauche) -->
  <rect x="30" y="360" width="80" height="44" rx="4" fill="rgba(64,216,192,0.03)" stroke="rgba(64,216,192,0.15)" stroke-width="0.5"/>
  <text x="70" y="381" text-anchor="middle" font-family="Georgia, serif" font-size="10" fill="rgba(64,216,192,0.4)">Persona B</text>
  <text x="70" y="395" text-anchor="middle" font-family="'IBM Plex Mono', monospace" font-size="7" fill="rgba(64,216,192,0.2)">lit, reagit</text>

  <line x1="112" y1="382" x2="128" y2="388" stroke="rgba(64,180,160,0.15)" stroke-width="0.6"/>
  <polygon points="128,388 122,383 122,390" fill="rgba(64,180,160,0.25)"/>

  <!-- Persona C (droite) -->
  <rect x="770" y="360" width="80" height="44" rx="4" fill="rgba(64,216,192,0.03)" stroke="rgba(64,216,192,0.15)" stroke-width="0.5"/>
  <text x="810" y="381" text-anchor="middle" font-family="Georgia, serif" font-size="10" fill="rgba(64,216,192,0.4)">Persona C</text>
  <text x="810" y="395" text-anchor="middle" font-family="'IBM Plex Mono', monospace" font-size="7" fill="rgba(64,216,192,0.2)">lit, reagit</text>

  <line x1="768" y1="382" x2="752" y2="388" stroke="rgba(64,180,160,0.15)" stroke-width="0.6"/>
  <polygon points="752,388 758,383 758,390" fill="rgba(64,180,160,0.25)"/>

  <!-- ════════════════════════════════════════
       EMERGENCE (droite)
  ════════════════════════════════════════ -->
  <rect x="640" y="236" width="210" height="56" rx="6" fill="rgba(226,72,153,0.03)" stroke="rgba(236,72,153,0.2)" stroke-width="0.6" stroke-dasharray="4,3"/>

  <text x="745" y="258" text-anchor="middle" font-family="Georgia, serif" font-size="12" fill="rgba(236,72,153,0.6)" font-weight="300">Emergence</text>
  <text x="745" y="276" text-anchor="middle" font-family="Inter, system-ui, sans-serif" font-size="8" fill="rgba(64,216,192,0.3)">3+ refus sur un domaine → signale le manque</text>

  <!-- Mycélium persona → emergence -->
  <path d="M 612,240 Q 625,238 638,252" fill="none" stroke="rgba(236,72,153,0.15)" stroke-width="0.5" stroke-dasharray="3,3"/>

  <!-- ════════════════════════════════════════
       PO (bas)
  ════════════════════════════════════════ -->
  <circle cx="440" cy="500" r="28" fill="rgba(64,216,192,0.05)" stroke="#40d8c0" stroke-width="1" filter="url(#glow)"/>
  <text x="440" y="497" text-anchor="middle" font-family="Georgia, serif" font-size="14" fill="#f0f8f5" font-weight="300">PO</text>
  <text x="440" y="511" text-anchor="middle" font-family="'IBM Plex Mono', monospace" font-size="7" fill="rgba(64,216,192,0.35)">humain</text>

  <!-- Fleche PO ↔ bus -->
  <line x1="440" y1="452" x2="440" y2="472" stroke="rgba(64,216,192,0.2)" stroke-width="0.8"/>
  <polygon points="440,472 436,464 444,464" fill="rgba(64,216,192,0.3)"/>

  <text x="440" y="545" text-anchor="middle" font-family="Georgia, serif" font-size="9" fill="rgba(64,216,192,0.2)" font-style="italic">orchestre · filtre · contextualise · tranche</text>

  <!-- Filet footer -->
  <line x1="40" y1="555" x2="840" y2="555" stroke="rgba(64,180,160,0.12)" stroke-width="0.5"/>
</svg>
